# xmcd
#
# Track frame offsets:
#	150
#	18301
#	42739
#	61277
#	82292
#	103823
#	120634
#	138237
#	157428
#	179306
#	195490
#	215741
#	230286
#	250636
#	269838
#	286476
#	303273
#	325116
#
# Disc length: 4670 seconds
#
# Revision: 0
# Processed by: cddbd v1.5.1PL0 Copyright (c) Steve Scherf et al.
# Submitted via: dBpowerAMP V4.0
#
DISCID=13123c12
DTITLE=Destiny's Child - Destiny Fulfilled
DYEAR=1900
DGENRE=Hip-Hop
TTITLE0=Lose My Breath
TTITLE1=Soldier(Feat.T.I.&Lil WAyne)
TTITLE2=Cater 2 U
TTITLE3=T-Shirt
TTITLE4=Is She the Reason
TTITLE5=Girl
TTITLE6=Bad Habit
TTITLE7=If
TTITLE8=Free
TTITLE9=Through With Love
TTITLE10=Love
TTITLE11=So Good
TTITLE12=Say My Name
TTITLE13=Bills,Bills,Bills
TTITLE14=Perfect Man
TTITLE15=Dance With Me
TTITLE16=Stay
TTITLE17=Now That She's Gone
EXTD=hey~
EXTT0=
EXTT1=
EXTT2=
EXTT3=
EXTT4=
EXTT5=
EXTT6=
EXTT7=
EXTT8=
EXTT9=
EXTT10=
EXTT11=
EXTT12=
EXTT13=
EXTT14=
EXTT15=
EXTT16=
EXTT17=
PLAYORDER=
